<mxfile host="app.diagrams.net" agent="Mozilla/5.0 (Windows NT 10.0; Win64; x64) AppleWebKit/537.36 (KHTML, like Gecko) Chrome/131.0.0.0 Safari/537.36" version="26.0.5">
  <diagram id="6a731a19-8d31-9384-78a2-239565b7b9f0" name="Page-1">
    <mxGraphModel dx="1776" dy="1005" grid="1" gridSize="10" guides="1" tooltips="1" connect="1" arrows="1" fold="1" page="1" pageScale="1" pageWidth="1169" pageHeight="827" background="none" math="0" shadow="0">
      <root>
        <mxCell id="0" />
        <mxCell id="1" parent="0" />
        <mxCell id="RP0sFJ-47pNShHVw98Qu-1793" value="" style="edgeStyle=none;curved=1;rounded=0;orthogonalLoop=1;jettySize=auto;html=1;fontSize=12;startSize=8;endSize=8;" parent="1" source="1749" edge="1">
          <mxGeometry relative="1" as="geometry">
            <mxPoint x="260" y="780" as="targetPoint" />
          </mxGeometry>
        </mxCell>
        <mxCell id="1749" value="필수 기능 구현" style="rounded=1;whiteSpace=wrap;html=1;shadow=0;labelBackgroundColor=none;strokeColor=#666666;strokeWidth=3;fillColor=#f5f5f5;fontFamily=Helvetica;fontSize=14;fontColor=#333333;align=center;fontStyle=1;spacing=5;arcSize=7;perimeterSpacing=2;" parent="1" vertex="1">
          <mxGeometry x="40" y="760" width="160" height="40" as="geometry" />
        </mxCell>
        <mxCell id="1760" value="기능 안정화" style="rounded=1;whiteSpace=wrap;html=1;shadow=0;labelBackgroundColor=none;strokeColor=#6c8ebf;strokeWidth=3;fillColor=#dae8fc;fontFamily=Helvetica;fontSize=14;align=center;spacing=5;fontStyle=1;arcSize=7;perimeterSpacing=2;" parent="1" vertex="1">
          <mxGeometry x="300" y="680" width="120" height="40" as="geometry" />
        </mxCell>
        <mxCell id="1771" value="제품 안정화" style="rounded=1;whiteSpace=wrap;html=1;shadow=0;labelBackgroundColor=none;strokeColor=#6c8ebf;strokeWidth=3;fillColor=#dae8fc;fontFamily=Helvetica;fontSize=14;align=center;spacing=5;fontStyle=1;arcSize=7;perimeterSpacing=2;" parent="1" vertex="1">
          <mxGeometry x="855" y="860" width="120" height="40" as="geometry" />
        </mxCell>
        <mxCell id="RP0sFJ-47pNShHVw98Qu-1779" value="기능 최적화" style="rounded=1;whiteSpace=wrap;html=1;shadow=0;labelBackgroundColor=none;strokeColor=#6c8ebf;strokeWidth=3;fillColor=#dae8fc;fontFamily=Helvetica;fontSize=14;align=center;spacing=5;fontStyle=1;arcSize=7;perimeterSpacing=2;" parent="1" vertex="1">
          <mxGeometry x="300" y="760" width="120" height="40" as="geometry" />
        </mxCell>
        <mxCell id="RP0sFJ-47pNShHVw98Qu-1784" value="보조 기능 구현" style="rounded=1;whiteSpace=wrap;html=1;shadow=0;labelBackgroundColor=none;strokeColor=#666666;strokeWidth=3;fillColor=#f5f5f5;fontFamily=Helvetica;fontSize=14;fontColor=#333333;align=center;fontStyle=1;spacing=5;arcSize=7;perimeterSpacing=2;" parent="1" vertex="1">
          <mxGeometry x="40" y="1200" width="160" height="40" as="geometry" />
        </mxCell>
        <mxCell id="RP0sFJ-47pNShHVw98Qu-1794" value="" style="edgeStyle=none;curved=1;rounded=0;orthogonalLoop=1;jettySize=auto;html=1;fontSize=12;startSize=8;endSize=8;" parent="1" source="RP0sFJ-47pNShHVw98Qu-1785" edge="1">
          <mxGeometry relative="1" as="geometry">
            <mxPoint x="260" y="1020" as="targetPoint" />
          </mxGeometry>
        </mxCell>
        <mxCell id="RP0sFJ-47pNShHVw98Qu-1785" value="필수 기능 구현" style="rounded=1;whiteSpace=wrap;html=1;shadow=0;labelBackgroundColor=none;strokeColor=#666666;strokeWidth=3;fillColor=#f5f5f5;fontFamily=Helvetica;fontSize=14;fontColor=#333333;align=center;fontStyle=1;spacing=5;arcSize=7;perimeterSpacing=2;" parent="1" vertex="1">
          <mxGeometry x="40" y="1000" width="160" height="40" as="geometry" />
        </mxCell>
        <mxCell id="RP0sFJ-47pNShHVw98Qu-1787" value="기능 안정화" style="rounded=1;whiteSpace=wrap;html=1;shadow=0;labelBackgroundColor=none;strokeColor=#6c8ebf;strokeWidth=3;fillColor=#dae8fc;fontFamily=Helvetica;fontSize=14;align=center;spacing=5;fontStyle=1;arcSize=7;perimeterSpacing=2;" parent="1" vertex="1">
          <mxGeometry x="300" y="920" width="120" height="40" as="geometry" />
        </mxCell>
        <mxCell id="RP0sFJ-47pNShHVw98Qu-1788" value="기능 최적화" style="rounded=1;whiteSpace=wrap;html=1;shadow=0;labelBackgroundColor=none;strokeColor=#6c8ebf;strokeWidth=3;fillColor=#dae8fc;fontFamily=Helvetica;fontSize=14;align=center;spacing=5;fontStyle=1;arcSize=7;perimeterSpacing=2;" parent="1" vertex="1">
          <mxGeometry x="300" y="1000" width="120" height="40" as="geometry" />
        </mxCell>
        <mxCell id="RP0sFJ-47pNShHVw98Qu-1789" value="보조 기능 구현" style="rounded=1;whiteSpace=wrap;html=1;shadow=0;labelBackgroundColor=none;strokeColor=#666666;strokeWidth=3;fillColor=#f5f5f5;fontFamily=Helvetica;fontSize=14;fontColor=#333333;align=center;fontStyle=1;spacing=5;arcSize=7;perimeterSpacing=2;" parent="1" vertex="1">
          <mxGeometry x="40" y="1280" width="160" height="40" as="geometry" />
        </mxCell>
        <mxCell id="RP0sFJ-47pNShHVw98Qu-1790" value="제품 안정화" style="rounded=1;whiteSpace=wrap;html=1;shadow=0;labelBackgroundColor=none;strokeColor=#6c8ebf;strokeWidth=3;fillColor=#dae8fc;fontFamily=Helvetica;fontSize=14;align=center;spacing=5;fontStyle=1;arcSize=7;perimeterSpacing=2;" parent="1" vertex="1">
          <mxGeometry x="855" y="1020.5" width="120" height="40" as="geometry" />
        </mxCell>
        <mxCell id="RP0sFJ-47pNShHVw98Qu-1791" value="local refectoring" style="rounded=1;whiteSpace=wrap;html=1;shadow=0;labelBackgroundColor=none;strokeColor=#82b366;strokeWidth=3;fillColor=#d5e8d4;fontFamily=Helvetica;fontSize=14;align=center;spacing=5;fontStyle=1;arcSize=7;perimeterSpacing=2;" parent="1" vertex="1">
          <mxGeometry x="290" y="1080.5" width="140" height="40" as="geometry" />
        </mxCell>
        <mxCell id="RP0sFJ-47pNShHVw98Qu-1796" value="" style="shape=curlyBracket;whiteSpace=wrap;html=1;rounded=1;labelPosition=left;verticalLabelPosition=middle;align=right;verticalAlign=middle;" parent="1" vertex="1">
          <mxGeometry x="260" y="940" width="20" height="160" as="geometry" />
        </mxCell>
        <mxCell id="RP0sFJ-47pNShHVw98Qu-1797" value="" style="shape=curlyBracket;whiteSpace=wrap;html=1;rounded=1;labelPosition=left;verticalLabelPosition=middle;align=right;verticalAlign=middle;" parent="1" vertex="1">
          <mxGeometry x="260" y="700" width="20" height="160" as="geometry" />
        </mxCell>
        <mxCell id="RP0sFJ-47pNShHVw98Qu-1798" value="" style="shape=curlyBracket;whiteSpace=wrap;html=1;rounded=1;flipH=1;labelPosition=right;verticalLabelPosition=middle;align=left;verticalAlign=middle;" parent="1" vertex="1">
          <mxGeometry x="440" y="700" width="20" height="160" as="geometry" />
        </mxCell>
        <mxCell id="RP0sFJ-47pNShHVw98Qu-1799" value="" style="shape=curlyBracket;whiteSpace=wrap;html=1;rounded=1;flipH=1;labelPosition=right;verticalLabelPosition=middle;align=left;verticalAlign=middle;" parent="1" vertex="1">
          <mxGeometry x="440" y="940" width="20" height="160" as="geometry" />
        </mxCell>
        <mxCell id="RP0sFJ-47pNShHVw98Qu-1800" value="" style="shape=curlyBracket;whiteSpace=wrap;html=1;rounded=1;labelPosition=left;verticalLabelPosition=middle;align=right;verticalAlign=middle;" parent="1" vertex="1">
          <mxGeometry x="830" y="880" width="20" height="320" as="geometry" />
        </mxCell>
        <mxCell id="RP0sFJ-47pNShHVw98Qu-1803" value="" style="shape=curlyBracket;whiteSpace=wrap;html=1;rounded=1;flipH=1;labelPosition=right;verticalLabelPosition=middle;align=left;verticalAlign=middle;" parent="1" vertex="1">
          <mxGeometry x="975" y="880" width="20" height="320" as="geometry" />
        </mxCell>
        <mxCell id="RP0sFJ-47pNShHVw98Qu-1804" value="출시" style="rounded=1;whiteSpace=wrap;html=1;shadow=0;labelBackgroundColor=none;strokeColor=#d79b00;strokeWidth=3;fillColor=#ffe6cc;fontFamily=Helvetica;fontSize=14;align=center;spacing=5;fontStyle=1;arcSize=7;perimeterSpacing=2;" parent="1" vertex="1">
          <mxGeometry x="1055" y="1020.5" width="80" height="40" as="geometry" />
        </mxCell>
        <mxCell id="RP0sFJ-47pNShHVw98Qu-1805" value="" style="edgeStyle=none;curved=1;rounded=0;orthogonalLoop=1;jettySize=auto;html=1;fontSize=12;startSize=8;endSize=8;" parent="1" edge="1">
          <mxGeometry relative="1" as="geometry">
            <mxPoint x="995" y="1039.88" as="sourcePoint" />
            <mxPoint x="1053" y="1039.88" as="targetPoint" />
          </mxGeometry>
        </mxCell>
        <mxCell id="RP0sFJ-47pNShHVw98Qu-1806" value="" style="shape=curlyBracket;whiteSpace=wrap;html=1;rounded=1;flipH=1;labelPosition=right;verticalLabelPosition=middle;align=left;verticalAlign=middle;size=0.5;" parent="1" vertex="1">
          <mxGeometry x="750" y="780" width="20" height="520" as="geometry" />
        </mxCell>
        <mxCell id="RP0sFJ-47pNShHVw98Qu-1807" value="" style="edgeStyle=none;curved=1;rounded=0;orthogonalLoop=1;jettySize=auto;html=1;fontSize=12;startSize=8;endSize=8;" parent="1" edge="1">
          <mxGeometry relative="1" as="geometry">
            <mxPoint x="770" y="1040.2" as="sourcePoint" />
            <mxPoint x="828" y="1040.2" as="targetPoint" />
          </mxGeometry>
        </mxCell>
        <mxCell id="RP0sFJ-47pNShHVw98Qu-1810" value="" style="edgeStyle=none;curved=1;rounded=0;orthogonalLoop=1;jettySize=auto;html=1;fontSize=12;startSize=8;endSize=8;" parent="1" edge="1">
          <mxGeometry relative="1" as="geometry">
            <mxPoint x="460" y="779.05" as="sourcePoint" />
            <mxPoint x="518" y="779.05" as="targetPoint" />
          </mxGeometry>
        </mxCell>
        <mxCell id="RP0sFJ-47pNShHVw98Qu-1811" value="" style="edgeStyle=none;curved=1;rounded=0;orthogonalLoop=1;jettySize=auto;html=1;fontSize=12;startSize=8;endSize=8;" parent="1" edge="1">
          <mxGeometry relative="1" as="geometry">
            <mxPoint x="460" y="1019.5" as="sourcePoint" />
            <mxPoint x="518" y="1019.5" as="targetPoint" />
          </mxGeometry>
        </mxCell>
        <mxCell id="RP0sFJ-47pNShHVw98Qu-1812" value="" style="edgeStyle=none;curved=1;rounded=0;orthogonalLoop=1;jettySize=auto;html=1;fontSize=12;startSize=8;endSize=8;" parent="1" edge="1">
          <mxGeometry relative="1" as="geometry">
            <mxPoint x="202" y="1299" as="sourcePoint" />
            <mxPoint x="740" y="1300" as="targetPoint" />
          </mxGeometry>
        </mxCell>
        <mxCell id="RP0sFJ-47pNShHVw98Qu-1813" value="" style="edgeStyle=none;curved=1;rounded=0;orthogonalLoop=1;jettySize=auto;html=1;fontSize=12;startSize=8;endSize=8;" parent="1" edge="1">
          <mxGeometry relative="1" as="geometry">
            <mxPoint x="202" y="1220" as="sourcePoint" />
            <mxPoint x="740" y="1221" as="targetPoint" />
          </mxGeometry>
        </mxCell>
        <mxCell id="RP0sFJ-47pNShHVw98Qu-1814" value="global refactoring" style="rounded=1;whiteSpace=wrap;html=1;shadow=0;labelBackgroundColor=none;strokeColor=#82b366;strokeWidth=3;fillColor=#d5e8d4;fontFamily=Helvetica;fontSize=14;align=center;spacing=5;fontStyle=1;arcSize=7;perimeterSpacing=2;" parent="1" vertex="1">
          <mxGeometry x="860" y="1180" width="110" height="40" as="geometry" />
        </mxCell>
        <mxCell id="RP0sFJ-47pNShHVw98Qu-1815" value="local refectoring" style="rounded=1;whiteSpace=wrap;html=1;shadow=0;labelBackgroundColor=none;strokeColor=#82b366;strokeWidth=3;fillColor=#d5e8d4;fontFamily=Helvetica;fontSize=14;align=center;spacing=5;fontStyle=1;arcSize=7;perimeterSpacing=2;" parent="1" vertex="1">
          <mxGeometry x="290" y="840" width="140" height="40" as="geometry" />
        </mxCell>
        <mxCell id="7f9ogIe5_do5MOT3PUXY-1771" value="보조 기능 구현" style="rounded=1;whiteSpace=wrap;html=1;shadow=0;labelBackgroundColor=none;strokeColor=#666666;strokeWidth=3;fillColor=#f5f5f5;fontFamily=Helvetica;fontSize=14;fontColor=#333333;align=center;fontStyle=1;spacing=5;arcSize=7;perimeterSpacing=2;" vertex="1" parent="1">
          <mxGeometry x="520" y="1000" width="160" height="40" as="geometry" />
        </mxCell>
        <mxCell id="7f9ogIe5_do5MOT3PUXY-1773" value="보조 기능 구현" style="rounded=1;whiteSpace=wrap;html=1;shadow=0;labelBackgroundColor=none;strokeColor=#666666;strokeWidth=3;fillColor=#f5f5f5;fontFamily=Helvetica;fontSize=14;fontColor=#333333;align=center;fontStyle=1;spacing=5;arcSize=7;perimeterSpacing=2;" vertex="1" parent="1">
          <mxGeometry x="520" y="760" width="160" height="40" as="geometry" />
        </mxCell>
        <mxCell id="7f9ogIe5_do5MOT3PUXY-1774" value="" style="edgeStyle=none;curved=1;rounded=0;orthogonalLoop=1;jettySize=auto;html=1;fontSize=12;startSize=8;endSize=8;" edge="1" parent="1">
          <mxGeometry relative="1" as="geometry">
            <mxPoint x="680" y="779.13" as="sourcePoint" />
            <mxPoint x="738" y="779.13" as="targetPoint" />
          </mxGeometry>
        </mxCell>
        <mxCell id="7f9ogIe5_do5MOT3PUXY-1775" value="" style="edgeStyle=none;curved=1;rounded=0;orthogonalLoop=1;jettySize=auto;html=1;fontSize=12;startSize=8;endSize=8;" edge="1" parent="1">
          <mxGeometry relative="1" as="geometry">
            <mxPoint x="680" y="1020.5" as="sourcePoint" />
            <mxPoint x="738" y="1020.5" as="targetPoint" />
          </mxGeometry>
        </mxCell>
      </root>
    </mxGraphModel>
  </diagram>
</mxfile>
